<svg xmlns="http://www.w3.org/2000/svg" id="Layer_1" width="304" height="400" viewBox="0 0 304 400"><style>.a{fill:#3E4245;}.b{fill:#868F91;}.c{fill:#E0E0E0;}.d{fill:#FFF;}</style><path d="M147.7 0l-12.8 5.5v35.2h0c0.4 13.3 11.3 24 24.7 24v-12.8c-6.6 0-11.9-5.3-11.9-11.9v-12.1h11.9V15.1h-11.9L147.7 0 147.7 0z" class="a"/><path d="M105.3 15.1c-13.6 0-24.7 11.1-24.7 24.7 0 13.6 11.1 24.7 24.7 24.7 13.6 0 24.7-11.1 24.7-24.7C129.9 26.1 118.9 15.1 105.3 15.1M105.3 51.7c-6.6 0-11.9-5.3-11.9-11.9s5.3-11.9 11.9-11.9c6.6 0 11.9 5.3 11.9 11.9C117.1 46.3 111.8 51.7 105.3 51.7" class="a"/><path d="M187.4 15.1c-13.6 0-24.7 11.1-24.7 24.7 0 13.6 11.1 24.7 24.7 24.7s24.7-11.1 24.7-24.7C212.1 26.1 201 15.1 187.4 15.1M187.4 51.7c-6.6 0-11.9-5.3-11.9-11.9s5.3-11.9 11.9-11.9 11.9 5.3 11.9 11.9C199.3 46.3 193.9 51.7 187.4 51.7" class="a"/><path d="M24.7 15.1C11.1 15.1 0 26.1 0 39.8c0 0.3 0 0.6 0 1H0v33.8L12.8 80V61.4c3.5 1.9 7.6 3 11.9 3 13.6 0 24.7-11.1 24.7-24.7C49.4 26.1 38.3 15.1 24.7 15.1M24.7 51.7c-6.6 0-11.9-5.3-11.9-11.9s5.3-11.9 11.9-11.9c6.6 0 11.9 5.3 11.9 11.9C36.6 46.3 31.2 51.7 24.7 51.7" class="a"/><path d="M54 39.1H54v25.6h12.8V39.8c0-6.6 5.3-11.9 11.9-11.9v-12.8C65.3 15.1 54.4 25.8 54 39.1" class="a"/><path d="M278.6 15.1c-13.6 0-24.7 11.1-24.7 24.7 0 13.6 11.1 24.7 24.7 24.7 13.6 0 24.7-11.1 24.7-24.7C303.3 26.1 292.2 15.1 278.6 15.1M278.6 51.7c-6.6 0-11.9-5.3-11.9-11.9s5.3-11.9 11.9-11.9c6.6 0 11.9 5.3 11.9 11.9C290.5 46.3 285.1 51.7 278.6 51.7" class="a"/><rect x="236.1" y="15.1" width="12.8" height="49.4" class="a"/><path d="M222.4 47.9c-4.6 0-8.3 3.7-8.3 8.3s3.7 8.3 8.3 8.3c4.6 0 8.3-3.7 8.3-8.3S227 47.9 222.4 47.9" class="a"/><path d="M147.7 100l-12.8 5.5v35.2h0c0.4 13.3 11.3 24 24.7 24v-12.8c-6.6 0-11.9-5.3-11.9-11.9v-12.1h11.9v-12.8h-11.9L147.7 100 147.7 100z" class="b"/><path d="M105.3 115.1c-13.6 0-24.7 11.1-24.7 24.7 0 13.6 11.1 24.7 24.7 24.7 13.6 0 24.7-11.1 24.7-24.7C129.9 126.1 118.9 115.1 105.3 115.1M105.3 151.7c-6.6 0-11.9-5.3-11.9-11.9 0-6.6 5.3-11.9 11.9-11.9 6.6 0 11.9 5.3 11.9 11.9C117.1 146.3 111.8 151.7 105.3 151.7" class="b"/><path d="M187.4 115.1c-13.6 0-24.7 11.1-24.7 24.7 0 13.6 11.1 24.7 24.7 24.7s24.7-11.1 24.7-24.7C212.1 126.1 201 115.1 187.4 115.1M187.4 151.7c-6.6 0-11.9-5.3-11.9-11.9 0-6.6 5.3-11.9 11.9-11.9s11.9 5.3 11.9 11.9C199.3 146.3 193.9 151.7 187.4 151.7" class="b"/><path d="M24.7 115.1C11.1 115.1 0 126.1 0 139.8c0 0.3 0 0.6 0 1H0v33.8L12.8 180v-18.6c3.5 1.9 7.6 3 11.9 3 13.6 0 24.7-11.1 24.7-24.7C49.4 126.1 38.3 115.1 24.7 115.1M24.7 151.7c-6.6 0-11.9-5.3-11.9-11.9 0-6.6 5.3-11.9 11.9-11.9 6.6 0 11.9 5.3 11.9 11.9C36.6 146.3 31.2 151.7 24.7 151.7" class="b"/><path d="M54 139.1H54v25.6h12.8v-24.9c0-6.6 5.3-11.9 11.9-11.9v-12.8C65.3 115.1 54.4 125.8 54 139.1" class="b"/><path d="M278.6 115.1c-13.6 0-24.7 11.1-24.7 24.7 0 13.6 11.1 24.7 24.7 24.7 13.6 0 24.7-11.1 24.7-24.7C303.3 126.1 292.2 115.1 278.6 115.1M278.6 151.7c-6.6 0-11.9-5.3-11.9-11.9 0-6.6 5.3-11.9 11.9-11.9 6.6 0 11.9 5.3 11.9 11.9C290.5 146.3 285.1 151.7 278.6 151.7" class="b"/><rect x="236.1" y="115.1" width="12.8" height="49.4" class="b"/><path d="M222.4 147.9c-4.6 0-8.3 3.7-8.3 8.3s3.7 8.3 8.3 8.3c4.6 0 8.3-3.7 8.3-8.3S227 147.9 222.4 147.9" class="b"/><path d="M147.7 200l-12.8 5.5v35.2h0c0.4 13.3 11.3 24 24.7 24v-12.8c-6.6 0-11.9-5.3-11.9-11.9v-12.1h11.9v-12.8h-11.9L147.7 200 147.7 200z" class="c"/><path d="M105.3 215.1c-13.6 0-24.7 11.1-24.7 24.7s11.1 24.7 24.7 24.7c13.6 0 24.7-11.1 24.7-24.7C129.9 226.1 118.9 215.1 105.3 215.1M105.3 251.7c-6.6 0-11.9-5.3-11.9-11.9 0-6.6 5.3-11.9 11.9-11.9 6.6 0 11.9 5.3 11.9 11.9C117.1 246.3 111.8 251.7 105.3 251.7" class="c"/><path d="M187.4 215.1c-13.6 0-24.7 11.1-24.7 24.7s11.1 24.7 24.7 24.7 24.7-11.1 24.7-24.7C212.1 226.1 201 215.1 187.4 215.1M187.4 251.7c-6.6 0-11.9-5.3-11.9-11.9 0-6.6 5.3-11.9 11.9-11.9s11.9 5.3 11.9 11.9C199.3 246.3 193.9 251.7 187.4 251.7" class="c"/><path d="M24.7 215.1C11.1 215.1 0 226.1 0 239.8c0 0.3 0 0.6 0 1H0v33.8L12.8 280v-18.6c3.5 1.9 7.6 3 11.9 3 13.6 0 24.7-11.1 24.7-24.7C49.4 226.1 38.3 215.1 24.7 215.1M24.7 251.7c-6.6 0-11.9-5.3-11.9-11.9 0-6.6 5.3-11.9 11.9-11.9 6.6 0 11.9 5.3 11.9 11.9C36.6 246.3 31.2 251.7 24.7 251.7" class="c"/><path d="M54 239.1H54v25.6h12.8v-24.9c0-6.6 5.3-11.9 11.9-11.9v-12.8C65.3 215.1 54.4 225.8 54 239.1" class="c"/><path d="M278.6 215.1c-13.6 0-24.7 11.1-24.7 24.7s11.1 24.7 24.7 24.7c13.6 0 24.7-11.1 24.7-24.7C303.3 226.1 292.2 215.1 278.6 215.1M278.6 251.7c-6.6 0-11.9-5.3-11.9-11.9 0-6.6 5.3-11.9 11.9-11.9 6.6 0 11.9 5.3 11.9 11.9C290.5 246.3 285.1 251.7 278.6 251.7" class="c"/><rect x="236.1" y="215.1" width="12.8" height="49.4" class="c"/><path d="M222.4 247.9c-4.6 0-8.3 3.7-8.3 8.3s3.7 8.3 8.3 8.3c4.6 0 8.3-3.7 8.3-8.3S227 247.9 222.4 247.9" class="c"/><path d="M147.7 300l-12.8 5.5v35.2h0c0.4 13.3 11.3 24 24.7 24v-12.8c-6.6 0-11.9-5.3-11.9-11.9v-12.1h11.9v-12.8h-11.9L147.7 300 147.7 300z" class="d"/><path d="M105.3 315.1c-13.6 0-24.7 11.1-24.7 24.7s11.1 24.7 24.7 24.7c13.6 0 24.7-11.1 24.7-24.7C129.9 326.1 118.9 315.1 105.3 315.1M105.3 351.7c-6.6 0-11.9-5.3-11.9-11.9 0-6.6 5.3-11.9 11.9-11.9 6.6 0 11.9 5.3 11.9 11.9C117.1 346.3 111.8 351.7 105.3 351.7" class="d"/><path d="M187.4 315.1c-13.6 0-24.7 11.1-24.7 24.7s11.1 24.7 24.7 24.7 24.7-11.1 24.7-24.7C212.1 326.1 201 315.1 187.4 315.1M187.4 351.7c-6.6 0-11.9-5.3-11.9-11.9 0-6.6 5.3-11.9 11.9-11.9s11.9 5.3 11.9 11.9C199.3 346.3 193.9 351.7 187.4 351.7" class="d"/><path d="M24.7 315.1C11.1 315.1 0 326.1 0 339.8c0 0.3 0 0.6 0 1H0v33.8L12.8 380v-18.6c3.5 1.9 7.6 3 11.9 3 13.6 0 24.7-11.1 24.7-24.7C49.4 326.1 38.3 315.1 24.7 315.1M24.7 351.7c-6.6 0-11.9-5.3-11.9-11.9 0-6.6 5.3-11.9 11.9-11.9 6.6 0 11.9 5.3 11.9 11.9C36.6 346.3 31.2 351.7 24.7 351.7" class="d"/><path d="M54 339.1H54v25.6h12.8v-24.9c0-6.6 5.3-11.9 11.9-11.9v-12.8C65.3 315.1 54.4 325.8 54 339.1" class="d"/><path d="M278.6 315.1c-13.6 0-24.7 11.1-24.7 24.7s11.1 24.7 24.7 24.7c13.6 0 24.7-11.1 24.7-24.7C303.3 326.1 292.2 315.1 278.6 315.1M278.6 351.7c-6.6 0-11.9-5.3-11.9-11.9 0-6.6 5.3-11.9 11.9-11.9 6.6 0 11.9 5.3 11.9 11.9C290.5 346.3 285.1 351.7 278.6 351.7" class="d"/><rect x="236.1" y="315.1" width="12.8" height="49.4" class="d"/><path d="M222.4 347.9c-4.6 0-8.3 3.7-8.3 8.3s3.7 8.3 8.3 8.3c4.6 0 8.3-3.7 8.3-8.3S227 347.9 222.4 347.9" class="d"/></svg>